<svg width="17" height="17" viewBox="0 0 17 17" fill="none" xmlns="http://www.w3.org/2000/svg">
<g clip-path="url(#clip0_1_194)">
<path d="M8.50102 17C13.196 17 17.002 13.1944 17.002 8.5C17.002 3.80558 13.196 0 8.50102 0C3.80604 0 0 3.80558 0 8.5C0 13.1944 3.80604 17 8.50102 17Z" fill="#F0F0F0"/>
<path d="M1.75711 3.3252C1.08943 4.19389 0.585967 5.19513 0.292816 6.28283H4.71474L1.75711 3.3252Z" fill="#0052B4"/>
<path d="M16.7087 6.2828C16.4155 5.19513 15.912 4.19389 15.2444 3.3252L12.2868 6.2828H16.7087Z" fill="#0052B4"/>
<path d="M0.292816 10.7175C0.586 11.8052 1.08946 12.8064 1.75711 13.6751L4.71464 10.7175H0.292816Z" fill="#0052B4"/>
<path d="M13.6763 1.75729C12.8076 1.08961 11.8064 0.586152 10.7187 0.292969V4.71486L13.6763 1.75729Z" fill="#0052B4"/>
<path d="M3.32501 15.2429C4.19371 15.9106 5.19495 16.4141 6.28261 16.7073V12.2854L3.32501 15.2429Z" fill="#0052B4"/>
<path d="M6.28258 0.292969C5.19491 0.586152 4.19367 1.08961 3.32501 1.75726L6.28258 4.71483V0.292969Z" fill="#0052B4"/>
<path d="M10.7187 16.7073C11.8064 16.4141 12.8076 15.9106 13.6763 15.243L10.7187 12.2854V16.7073Z" fill="#0052B4"/>
<path d="M12.2868 10.7175L15.2444 13.6751C15.912 12.8065 16.4155 11.8052 16.7087 10.7175H12.2868Z" fill="#0052B4"/>
<path d="M16.9301 7.39131H9.6099H9.60987V0.0719512C9.24688 0.0247031 8.87682 0 8.50102 0C8.12515 0 7.75515 0.0247031 7.3922 0.0719512V7.39125V7.39128H0.0719598C0.0247061 7.75422 0 8.12424 0 8.5C0 8.87583 0.0247061 9.24578 0.0719598 9.60869H7.39213H7.39217V16.928C7.75515 16.9753 8.12515 17 8.50102 17C8.87682 17 9.24688 16.9753 9.60984 16.928V9.60875V9.60872H16.9301C16.9773 9.24578 17.002 8.87583 17.002 8.5C17.002 8.12424 16.9773 7.75422 16.9301 7.39131Z" fill="#D80027"/>
<path d="M10.7187 10.7176L14.5117 14.5106C14.6861 14.3362 14.8525 14.1539 15.0113 13.9649L11.764 10.7175H10.7187V10.7176Z" fill="#D80027"/>
<path d="M6.28259 10.7175H6.28252L2.48956 14.5105C2.66395 14.6849 2.84626 14.8514 3.03526 15.0101L6.28259 11.7627V10.7175Z" fill="#D80027"/>
<path d="M6.28259 6.2826V6.28253L2.4896 2.4895C2.31515 2.66389 2.14874 2.8462 1.98996 3.0352L5.23733 6.28257H6.28259V6.2826Z" fill="#D80027"/>
<path d="M10.7187 6.28266L14.5117 2.4896C14.3373 2.31515 14.155 2.14873 13.966 1.98999L10.7187 5.23736V6.28266Z" fill="#D80027"/>
</g>
<defs>
<clipPath id="clip0_1_194">
<rect width="17.002" height="17" fill="white"/>
</clipPath>
</defs>
</svg>
